HIERARCHY
ROOT joint_Root
{
	OFFSET 0.0 0.0 0.0
	CHANNELS 6 Xposition Yposition Zposition Zrotation Xrotation Yrotation 
	JOINT Hips
	{
		OFFSET 4.5925 91.4895 -427.239
		CHANNELS 6 Xposition Yposition Zposition Zrotation Xrotation Yrotation 
		JOINT Spine
		{
			OFFSET 15.7357 0.0 0.0
			CHANNELS 6 Xposition Yposition Zposition Zrotation Xrotation Yrotation 
			JOINT Chest
			{
				OFFSET 8.98455 -0.406207 0.0
				CHANNELS 6 Xposition Yposition Zposition Zrotation Xrotation Yrotation 
				JOINT Neck
				{
					OFFSET 16.3773 0.0 0.0
					CHANNELS 6 Xposition Yposition Zposition Zrotation Xrotation Yrotation 
					JOINT Head
					{
						OFFSET 6.45672 0.0 0.0
						CHANNELS 6 Xposition Yposition Zposition Zrotation Xrotation Yrotation 
						End Site
						{
							OFFSET 0.0 0.0 0.0
						}
					}
				}
				JOINT Shoulder_L
				{
					OFFSET 12.9942 -0.242716 4.98039
					CHANNELS 6 Xposition Yposition Zposition Zrotation Xrotation Yrotation 
					JOINT UpperArm_L
					{
						OFFSET 5.34809 0.0 0.0
						CHANNELS 6 Xposition Yposition Zposition Zrotation Xrotation Yrotation 
						JOINT LowerArm_L
						{
							OFFSET 24.3286 1.87007e-05 0.0
							CHANNELS 6 Xposition Yposition Zposition Zrotation Xrotation Yrotation 
							JOINT Hand_L
							{
								OFFSET 22.2916 0.0 0.0
								CHANNELS 6 Xposition Yposition Zposition Zrotation Xrotation Yrotation 
								End Site
								{
									OFFSET 0.0 0.0 0.0
								}
							}
						}
					}
				}
				JOINT Shoulder_R
				{
					OFFSET 12.9945 -0.242716 -4.98039
					CHANNELS 6 Xposition Yposition Zposition Zrotation Xrotation Yrotation 
					JOINT UpperArm_R
					{
						OFFSET -5.34813 0.0 0.0
						CHANNELS 6 Xposition Yposition Zposition Zrotation Xrotation Yrotation 
						JOINT LowerArm_R
						{
							OFFSET -24.3289 0.000322201 0.0
							CHANNELS 6 Xposition Yposition Zposition Zrotation Xrotation Yrotation 
							JOINT Hand_R
							{
								OFFSET -22.2915 -0.000108084 0.0
								CHANNELS 6 Xposition Yposition Zposition Zrotation Xrotation Yrotation 
								End Site
								{
									OFFSET 0.0 0.0 0.0
								}
							}
						}
					}
				}
			}
		}
		JOINT UpperLeg_L
		{
			OFFSET -2.19248 -6.46944 0.0
			CHANNELS 6 Xposition Yposition Zposition Zrotation Xrotation Yrotation 
			JOINT LowerLeg_L
			{
				OFFSET 39.0811 0.0 -1.23785e-05
				CHANNELS 6 Xposition Yposition Zposition Zrotation Xrotation Yrotation 
				JOINT Foot_L
				{
					OFFSET 40.9854 0.0 -1.26872e-05
					CHANNELS 6 Xposition Yposition Zposition Zrotation Xrotation Yrotation 
					JOINT Toes_L
					{
						OFFSET 11.7543 0.0 0.0
						CHANNELS 6 Xposition Yposition Zposition Zrotation Xrotation Yrotation 
						End Site
						{
							OFFSET 0.0 0.0 0.0
						}
					}
				}
			}
		}
		JOINT UpperLeg_R
		{
			OFFSET -2.19251 6.46944 0.0
			CHANNELS 6 Xposition Yposition Zposition Zrotation Xrotation Yrotation 
			JOINT LowerLeg_R
			{
				OFFSET -39.0811 -0.00228153 -0.0401928
				CHANNELS 6 Xposition Yposition Zposition Zrotation Xrotation Yrotation 
				JOINT Foot_R
				{
					OFFSET -40.9854 0.0 0.0
					CHANNELS 6 Xposition Yposition Zposition Zrotation Xrotation Yrotation 
					JOINT Toes_R
					{
						OFFSET -11.7543 0.0 0.0
						CHANNELS 6 Xposition Yposition Zposition Zrotation Xrotation Yrotation 
						End Site
						{
							OFFSET 0.0 0.0 0.0
						}
					}
				}
			}
		}
	}
}
MOTION
Frames:	8
Frame Time:	0.0333333
0.000000 0.000000 0.000000 0.000000 0.000000 -0.000000 81.115300 86.147200 187.973000 -60.011400 79.443500 160.850000 15.735700 0.000005 -0.000001 95.217700 83.175700 -94.941800 8.984550 -0.406207 -0.000000 5.824080 1.233350 0.488332 16.377300 -0.000001 -0.000001 1.011210 9.728870 1.190900 6.456720 -0.000001 -0.000000 -6.783810 15.721200 -0.537752 12.994200 -0.242716 4.980390 -91.213900 3.180830 -69.098700 5.348090 -0.000007 -0.000001 -62.548500 19.500000 -6.143960 24.328600 0.000019 0.000005 4.326450 26.812200 -9.523360 22.291600 -0.000001 0.000005 9.233500 5.094270 5.243220 12.994500 -0.242716 -4.980390 88.066100 10.516200 -79.518300 -5.348130 -0.000001 -0.000004 -50.606700 18.323200 -23.508700 -24.328900 0.000322 -0.000009 -2.725940 -2.963010 -42.644200 -22.291500 -0.000108 -0.000004 22.974500 5.494040 -6.296890 -2.192480 -6.469440 -0.000000 176.231000 -27.099200 -13.531200 39.081100 -0.000007 -0.000012 -0.366446 0.355074 45.903800 40.985400 -0.000006 -0.000013 10.591500 -9.743770 -76.931100 11.754300 -0.000000 0.000003 -0.000067 -0.000727 -16.605700 -2.192510 6.469440 -0.000001 168.836000 2.716130 174.417000 -39.081100 -0.002282 -0.040193 0.173870 -0.065462 69.023800 -40.985400 0.000008 0.000006 -11.201100 11.755200 -26.231700 -11.754300 -0.000006 -0.000006 -0.024524 -0.191167 -24.393100
0.000000 0.000000 0.000000 0.000000 0.000000 -0.000000 83.722800 86.776400 186.487000 -68.839700 74.181200 169.266000 15.735700 0.000005 -0.000001 90.832500 83.472900 -90.517400 8.984550 -0.406207 -0.000000 5.286340 0.182440 0.621160 16.377300 -0.000001 -0.000001 0.958303 9.470580 0.631641 6.456720 -0.000001 -0.000000 -6.435060 16.074400 -1.153900 12.994200 -0.242716 4.980390 -91.300700 3.514880 -69.677600 5.348090 -0.000007 -0.000001 -63.038500 21.563800 -9.430530 24.328600 0.000019 0.000005 6.094860 25.622600 -13.870400 22.291600 -0.000001 0.000005 8.867300 5.160530 3.689580 12.994500 -0.242716 -4.980390 87.976500 10.336300 -78.859900 -5.348130 -0.000001 -0.000004 -50.098900 21.175300 -20.355700 -24.328900 0.000322 -0.000009 -2.306840 -2.889000 -38.604800 -22.291500 -0.000108 -0.000004 20.636300 5.486300 -5.974050 -2.192480 -6.469440 -0.000000 176.190000 -22.898400 -9.763820 39.081100 -0.000007 -0.000012 -0.339330 0.365347 42.886400 40.985400 -0.000006 -0.000013 10.857000 -8.495580 -77.549000 11.754300 -0.000000 0.000003 -0.000072 -0.000774 -16.607500 -2.192510 6.469440 -0.000001 170.399000 2.598560 172.435000 -39.081100 -0.002282 -0.040193 0.086029 -0.028612 70.964800 -40.985400 0.000008 0.000006 -6.134270 10.319500 -36.924600 -11.754300 -0.000006 -0.000006 -0.022639 -0.181489 -23.993400
0.000000 0.000000 0.000000 0.000000 0.000000 -0.000000 86.117700 87.548600 185.074000 -72.456400 68.198500 172.556000 15.735700 0.000005 -0.000001 86.279500 83.650700 -85.781200 8.984550 -0.406207 -0.000000 4.909980 -0.834798 1.031140 16.377300 -0.000001 -0.000001 0.736735 9.245660 0.357879 6.456720 -0.000001 -0.000000 -6.256770 16.195400 -1.217310 12.994200 -0.242716 4.980390 -91.269700 3.582190 -70.469000 5.348090 -0.000007 -0.000001 -63.275600 25.819900 -13.121600 24.328600 0.000019 0.000005 8.065330 24.183100 -19.082300 22.291600 -0.000001 0.000005 8.744350 5.198430 2.759230 12.994500 -0.242716 -4.980390 87.955800 10.205400 -78.610100 -5.348130 -0.000001 -0.000004 -49.641700 24.849400 -16.458700 -24.328900 0.000322 -0.000009 -0.164472 -0.233626 -34.607000 -22.291500 -0.000108 -0.000004 16.450400 5.455270 -4.814030 -2.192480 -6.469440 -0.000000 176.781000 -18.670900 -5.784920 39.081100 -0.000007 -0.000012 -0.307461 0.378087 39.118600 40.985400 -0.000006 -0.000013 11.324500 -6.516400 -77.629000 11.754300 -0.000000 0.000003 -0.000064 -0.000698 -16.604600 -2.192510 6.469440 -0.000001 172.361000 3.146180 170.435000 -39.081100 -0.002282 -0.040193 0.034886 -0.011400 70.264000 -40.985400 0.000008 0.000006 -1.824600 4.587550 -44.067300 -11.754300 -0.000006 -0.000006 -0.020878 -0.172103 -23.606200
0.000000 0.000000 0.000000 0.000000 0.000000 -0.000000 88.262900 88.345100 183.759000 -74.405700 61.950600 173.764000 15.735700 0.000005 -0.000001 81.777700 83.902700 -81.040600 8.984550 -0.406207 -0.000000 4.316660 -1.763350 1.538980 16.377300 -0.000001 -0.000001 0.307834 8.958990 0.284865 6.456720 -0.000001 -0.000000 -6.353730 16.142100 -0.751534 12.994200 -0.242716 4.980390 -91.191300 3.502910 -71.203600 5.348090 -0.000007 -0.000001 -62.375700 31.613200 -17.617700 24.328600 0.000019 0.000005 10.247500 23.259100 -24.598600 22.291600 -0.000001 0.000005 8.922840 5.234960 1.827100 12.994500 -0.242716 -4.980390 87.929700 10.140500 -78.397000 -5.348130 -0.000001 -0.000004 -49.865800 29.251700 -12.145900 -24.328900 0.000322 -0.000009 2.406500 4.051610 -30.777600 -22.291500 -0.000108 -0.000004 11.972700 5.436270 -4.148810 -2.192480 -6.469440 -0.000000 177.464000 -14.953800 -2.331620 39.081100 -0.000007 -0.000012 -0.193363 0.277808 34.839400 40.985400 -0.000006 -0.000013 13.081400 -4.135960 -77.345400 11.754300 -0.000000 0.000003 -0.681552 -0.857205 -16.047700 -2.192510 6.469440 -0.000001 174.421000 3.609110 168.001000 -39.081100 -0.002282 -0.040193 0.005425 -0.000961 67.138200 -40.985400 0.000008 0.000006 2.071870 -1.777120 -47.966500 -11.754300 -0.000006 -0.000006 -0.020443 -0.169730 -23.508400
0.000000 0.000000 0.000000 0.000000 0.000000 -0.000000 90.193500 89.034200 182.558000 -75.985000 55.569700 173.995000 15.735700 0.000005 -0.000001 76.745300 84.275100 -75.798400 8.984550 -0.406207 -0.000000 3.404580 -2.658170 1.970950 16.377300 -0.000001 -0.000001 -0.233520 8.588970 0.312092 6.456720 -0.000001 -0.000000 -6.648570 15.920700 -0.045380 12.994200 -0.242716 4.980390 -91.067500 3.281190 -71.968100 5.348090 -0.000007 -0.000001 -60.306700 37.270300 -22.670400 24.328600 0.000019 0.000005 12.905800 22.604000 -30.800600 22.291600 -0.000001 0.000005 9.038560 5.259790 1.173280 12.994500 -0.242716 -4.980390 87.919900 10.024600 -78.214300 -5.348130 -0.000001 -0.000004 -51.736400 32.990300 -7.231610 -24.328900 0.000322 -0.000009 4.228510 8.225880 -27.341000 -22.291500 -0.000108 -0.000004 8.058290 5.425740 -3.787210 -2.192480 -6.469440 -0.000000 177.781000 -11.267100 0.301818 39.081100 -0.000007 -0.000012 0.014567 -0.024900 30.326900 40.985400 -0.000006 -0.000013 16.378700 -2.281180 -76.922900 11.754300 -0.000000 0.000003 -0.677848 -0.841234 -16.047100 -2.192510 6.469440 -0.000001 176.119000 3.485430 165.436000 -39.081100 -0.002282 -0.040193 0.001121 0.001101 61.967600 -40.985400 0.000008 0.000006 6.122610 -5.800830 -52.467900 -11.754300 -0.000006 -0.000006 -0.019952 -0.167020 -23.396800
0.000000 0.000000 0.000000 0.000000 0.000000 -0.000000 92.037200 89.516000 181.451000 -77.584400 49.361900 174.179000 15.735700 0.000005 -0.000001 72.357800 84.565400 -71.329200 8.984550 -0.406207 -0.000000 2.626790 -3.337430 2.132130 16.377300 -0.000001 -0.000001 -0.916368 7.953650 0.473299 6.456720 -0.000001 -0.000000 -7.176410 15.493900 0.640733 12.994200 -0.242716 4.980390 -90.887300 2.848990 -72.695000 5.348090 -0.000007 -0.000001 -56.649700 42.321100 -28.756000 24.328600 0.000019 0.000005 15.767300 21.835200 -37.202500 22.291600 -0.000001 0.000005 8.864230 5.293200 0.262452 12.994500 -0.242716 -4.980390 87.890200 9.882810 -77.885700 -5.348130 -0.000001 -0.000004 -55.391500 34.237100 -1.795610 -24.328900 0.000322 -0.000009 4.912410 11.050200 -24.158200 -22.291500 -0.000108 -0.000004 5.535970 5.404210 -3.069150 -2.192480 -6.469440 -0.000000 178.301000 -7.273310 1.434730 39.081100 -0.000007 -0.000012 0.026341 -0.049181 28.173000 40.985400 -0.000006 -0.000013 16.581900 0.245834 -75.789800 11.754300 -0.000000 0.000003 -0.992243 -1.219790 -17.378400 -2.192510 6.469440 -0.000001 176.922000 2.508190 163.089000 -39.081100 -0.002282 -0.040193 0.018285 -0.010387 55.406400 -40.985400 0.000008 0.000006 7.065420 -8.087990 -55.712800 -11.754300 -0.000006 -0.000006 -0.019604 -0.165086 -23.317100
0.000000 0.000000 0.000000 0.000000 0.000000 -0.000000 93.963200 89.807600 180.381000 -78.945400 43.521200 174.363000 15.735700 0.000005 -0.000001 68.888700 84.708400 -67.803800 8.984550 -0.406207 -0.000000 2.149090 -3.862410 2.240760 16.377300 -0.000001 -0.000001 -1.623750 7.286150 0.605935 6.456720 -0.000001 -0.000000 -7.676280 14.884400 1.146680 12.994200 -0.242716 4.980390 -90.670000 2.244460 -73.375100 5.348090 -0.000007 -0.000001 -51.705000 46.378900 -35.623800 24.328600 0.000019 0.000005 18.433100 20.653000 -43.379100 22.291600 -0.000001 0.000005 9.214830 5.302200 0.010473 12.994500 -0.242716 -4.980390 87.917200 9.534030 -77.616100 -5.348130 -0.000001 -0.000004 -59.792200 31.730000 3.203630 -24.328900 0.000322 -0.000009 4.421810 11.783900 -20.742600 -22.291500 -0.000108 -0.000004 4.552330 5.376240 -2.180850 -2.192480 -6.469440 -0.000000 179.078000 -3.782160 2.273650 39.081100 -0.000007 -0.000012 0.025355 -0.049807 26.978900 40.985400 -0.000006 -0.000013 16.633400 3.005540 -75.016300 11.754300 -0.000000 0.000003 -1.548070 -1.861800 -18.751600 -2.192510 6.469440 -0.000001 177.082000 1.510300 161.149000 -39.081100 -0.002282 -0.040193 0.037579 -0.030518 48.360000 -40.985400 0.000008 0.000006 6.588770 -7.815030 -57.203900 -11.754300 -0.000006 -0.000006 -0.019471 -0.164341 -23.286500
0.000000 0.000000 0.000000 0.000000 0.000000 -0.000000 96.027300 89.873400 179.215000 -80.180400 38.470100 174.763000 15.735700 0.000005 -0.000001 66.828000 84.745400 -65.739100 8.984550 -0.406207 -0.000000 1.941210 -4.188000 2.247540 16.377300 -0.000001 -0.000001 -2.114060 6.638010 0.755611 6.456720 -0.000001 -0.000000 -8.175440 14.231800 1.462670 12.994200 -0.242716 4.980390 -90.471900 1.619920 -73.758300 5.348090 -0.000007 -0.000001 -46.044100 49.164700 -42.500400 24.328600 0.000019 0.000005 20.351400 18.714600 -49.140000 22.291600 -0.000001 0.000005 9.352220 5.315850 -0.376624 12.994500 -0.242716 -4.980390 87.975000 9.160250 -77.478100 -5.348130 -0.000001 -0.000004 -63.398100 26.533400 6.885290 -24.328900 0.000322 -0.000009 3.429780 11.260800 -17.064800 -22.291500 -0.000108 -0.000004 5.339600 5.358530 -1.634960 -2.192480 -6.469440 -0.000000 -179.969000 -1.335340 3.184230 39.081100 -0.000007 -0.000012 0.026690 -0.053651 26.449300 40.985400 -0.000006 -0.000013 16.451000 6.061330 -74.769100 11.754300 -0.000000 0.000003 -1.941800 -2.278720 -20.299000 -2.192510 6.469440 -0.000001 176.892000 0.935264 159.436000 -39.081100 -0.002282 -0.040193 0.047993 -0.049724 41.967000 -40.985400 0.000008 0.000006 5.817020 -4.858620 -57.834100 -11.754300 -0.000006 -0.000006 -0.019775 -0.166040 -23.356400
